Coordinates
version=1
nRows=10
nColumns=40
inDegrees=yes

Units are S.I. units (second, meters, Newtons, ...)
Angles are in degrees.

endheader
time	pelvis_tilt	pelvis_list	pelvis_rotation	pelvis_tx	pelvis_ty	pelvis_tz	hip_flexion_r	hip_adduction_r	hip_rotation_r	knee_angle_r	knee_angle_r_beta	ankle_angle_r	subtalar_angle_r	mtp_angle_r	hip_flexion_l	hip_adduction_l	hip_rotation_l	knee_angle_l	knee_angle_l_beta	ankle_angle_l	subtalar_angle_l	mtp_angle_l	lumbar_extension	lumbar_bending	lumbar_rotation	arm_flex_r	arm_add_r	arm_rot_r	elbow_flex_r	pro_sup_r	wrist_flex_r	wrist_dev_r	arm_flex_l	arm_add_l	arm_rot_l	elbow_flex_l	pro_sup_l	wrist_flex_l	wrist_dev_l
     13.79500000	     -2.47609310	     -3.80905131	      3.89669902	      1.02033379	      0.92462138	      0.46944491	      5.01253450	     -1.72286352	    -12.68877264	     30.49852158	     30.49852158	     17.12719396	     -3.74216443	     -6.24771695	     22.86676055	     -4.12260076	     -3.82600725	     26.77579148	     26.77579148	      9.81933810	    -14.67509835	      2.70900046	     -8.31891547	      3.51175578	      2.78376314	     15.81061975	    -16.22245882	      1.93422714	     55.82598376	     45.20003180	      0.00000000	      0.00000000	      3.68969648	     -9.02576137	     -6.12104558	     27.47382428	     46.50335446	      0.00000000	      0.00000000
     13.80800000	     -2.50363822	     -3.67026168	      3.65237604	      1.02025183	      0.92517370	      0.46730393	      6.80742152	     -2.52246624	    -12.16290420	     34.25253915	     34.25253915	     15.97324488	     -4.85986326	     -7.19350229	     22.31035963	     -3.93869766	     -4.24163378	     26.51028116	     26.51028116	     10.18569488	    -14.47383381	      2.43940326	     -8.39624244	      3.31002755	      2.72003969	     14.28050569	    -16.02798643	      2.29694914	     54.57183046	     45.22386237	      0.00000000	      0.00000000	      4.89801505	     -9.27534911	     -6.22611984	     27.93075439	     46.53796666	      0.00000000	      0.00000000
     13.82100000	     -2.50538870	     -3.56779934	      3.39205285	      1.02004204	      0.92573285	      0.46535089	      8.71557848	     -3.23332699	    -11.51246894	     38.11732424	     38.11732424	     14.41324101	     -6.15793318	     -8.22024195	     21.74136803	     -3.79921514	     -4.62524781	     26.25115272	     26.25115272	     10.45738023	    -14.33745631	      2.17102070	     -8.50443745	      3.14810111	      2.68147389	     12.81002980	    -15.83895876	      2.62850383	     53.08253955	     45.25767057	      0.00000000	      0.00000000	      6.13953079	     -9.51658188	     -6.32074665	     28.37759645	     46.57063977	      0.00000000	      0.00000000
     13.83400000	     -2.46664720	     -3.49572623	      3.13890704	      1.01972717	      0.92626359	      0.46349578	     10.68078334	     -3.87162634	    -10.83899129	     42.01373792	     42.01373792	     12.46480799	     -7.56564517	     -9.20941727	     21.15312716	     -3.68207090	     -4.93493720	     26.01328148	     26.01328148	     10.70556993	    -14.24748486	      1.88308515	     -8.65973458	      3.03891870	      2.59803075	     11.40159021	    -15.62568242	      2.90222239	     51.42940322	     45.30002853	      0.00000000	      0.00000000	      7.40687705	     -9.76665204	     -6.40605712	     28.85686856	     46.60161844	      0.00000000	      0.00000000
     13.84700000	     -2.36324928	     -3.59954396	      2.90594625	      1.01938412	      0.92691807	      0.46186680	     12.44536287	     -4.11827366	    -10.00150495	     45.30964238	     45.30964238	      8.55073842	    -10.50369424	    -14.29178058	     20.48583973	     -3.74829670	     -5.13197256	     25.68757372	     25.68757372	     10.55816709	    -14.36020743	      0.73184638	     -8.79322335	      3.12400382	      2.17592152	     11.35114946	    -14.76447441	      2.77400600	     46.09585802	     45.50958520	      0.00000000	      0.00000000	      8.59709626	    -10.04529641	     -6.71143341	     29.04759076	     46.63766062	      0.00000000	      0.00000000
     13.86000000	     -2.28233746	     -3.56683301	      2.66313943	      1.01892614	      0.92735686	      0.46015325	     14.48971606	     -4.68777961	     -9.44588734	     49.14885504	     49.14885504	      6.31153167	    -11.59660557	    -14.40691942	     19.89052455	     -3.65315319	     -5.36208399	     25.47728780	     25.47728780	     10.80322242	    -14.37797495	      0.58228384	     -9.00822890	      3.09607351	      1.99924102	      9.86247578	    -14.58895787	      2.90039466	     44.96362850	     45.53734503	      0.00000000	      0.00000000	      9.70532272	    -10.34453188	     -6.84903981	     29.81047008	     46.67121181	      0.00000000	      0.00000000
     13.87300000	     -2.10504495	     -3.55642139	      2.42630710	      1.01842046	      0.92789502	      0.45857164	     16.41832530	     -5.14540443	     -8.84950179	     52.77486559	     52.77486559	      4.00540391	    -12.63612310	    -14.13225886	     19.23471579	     -3.59295496	     -5.54905600	     25.34248014	     25.34248014	     11.08263568	    -14.40002885	      0.41678986	     -9.37026648	      3.07901386	      1.78068360	      8.46241016	    -14.42814401	      2.97236991	     43.71339803	     45.57275156	      0.00000000	      0.00000000	     10.87459063	    -10.68308544	     -6.94559458	     30.54383582	     46.70128647	      0.00000000	      0.00000000
     13.88600000	     -2.00563342	     -3.70743705	      2.16675104	      1.01788773	      0.92838615	      0.45720060	     18.43095585	     -5.25409821	     -8.12805545	     56.17281026	     56.17281026	      2.07671013	    -13.59163849	    -12.28914970	     18.64771650	     -3.70419663	     -5.68608340	     25.12596363	     25.12596363	     11.09985223	    -14.58269320	     -0.27237444	     -9.54999774	      3.24278153	      1.42775708	      8.36257315	    -13.54951829	      1.56211071	     38.64930152	     45.83885006	      0.00000000	      0.00000000	     11.53417165	    -11.04601622	     -7.13284974	     32.18810135	     46.69899328	      0.00000000	      0.00000000
     13.89900000	     -1.85176195	     -3.79533695	      1.90880205	      1.01734365	      0.92891066	      0.45583682	     20.34117420	     -5.44065225	     -7.52459703	     59.33689238	     59.33689238	      0.69231699	    -13.88907913	     -9.58572982	     18.02986382	     -3.75416028	     -5.85668238	     24.98611181	     24.98611181	     11.32382565	    -14.64087200	     -0.48809822	     -9.85358492	      3.36508603	      1.21800500	      7.41302447	    -13.13832211	      0.41522944	     36.10647455	     45.98744765	      0.00000000	      0.00000000	     12.45366205	    -11.38599646	     -7.18842265	     33.46063702	     46.68744770	      0.00000000	      0.00000000
     13.91200000	     -1.72664759	     -3.85759818	      1.64204923	      1.01676205	      0.92944718	      0.45448527	     22.11449168	     -5.62323591	     -6.99685418	     61.94943330	     61.94943330	     -1.11953717	    -14.44128190	     -8.90705913	     17.42946541	     -3.77214335	     -6.05269300	     24.81845787	     24.81845787	     11.58917677	    -14.66420551	     -0.54384444	    -10.13588558	      3.48560212	      1.02361055	      6.01120856	    -13.13805742	      0.36351799	     35.09694782	     46.01949104	      0.00000000	      0.00000000	     13.54231020	    -11.70741595	     -7.25978283	     34.17281738	     46.71185585	      0.00000000	      0.00000000
